<mxfile host="app.diagrams.net" modified="2024-04-17T09:00:59.050Z" agent="Mozilla/5.0 (Windows NT 10.0; Win64; x64) AppleWebKit/537.36 (KHTML, like Gecko) Chrome/123.0.0.0 Safari/537.36" etag="DmrdpyhputzopwHVeHc9" version="24.2.5" type="device">
  <diagram name="Page-1" id="KZNSoS6ynnWNcHw5Ocli">
    <mxGraphModel dx="1444" dy="896" grid="1" gridSize="10" guides="1" tooltips="1" connect="1" arrows="1" fold="1" page="1" pageScale="1" pageWidth="827" pageHeight="1169" math="0" shadow="0">
      <root>
        <mxCell id="0" />
        <mxCell id="1" parent="0" />
        <mxCell id="BHclKkxX6RFogNH9QFCV-3" value="Doctor" style="swimlane;fontStyle=1;align=center;verticalAlign=top;childLayout=stackLayout;horizontal=1;startSize=26;horizontalStack=0;resizeParent=1;resizeParentMax=0;resizeLast=0;collapsible=1;marginBottom=0;whiteSpace=wrap;html=1;" vertex="1" parent="1">
          <mxGeometry x="210" y="490" width="160" height="112" as="geometry" />
        </mxCell>
        <mxCell id="BHclKkxX6RFogNH9QFCV-4" value="+ id: int" style="text;strokeColor=none;fillColor=none;align=left;verticalAlign=top;spacingLeft=4;spacingRight=4;overflow=hidden;rotatable=0;points=[[0,0.5],[1,0.5]];portConstraint=eastwest;whiteSpace=wrap;html=1;" vertex="1" parent="BHclKkxX6RFogNH9QFCV-3">
          <mxGeometry y="26" width="160" height="26" as="geometry" />
        </mxCell>
        <mxCell id="BHclKkxX6RFogNH9QFCV-7" value="+ Basic Descptions" style="text;strokeColor=none;fillColor=none;align=left;verticalAlign=top;spacingLeft=4;spacingRight=4;overflow=hidden;rotatable=0;points=[[0,0.5],[1,0.5]];portConstraint=eastwest;whiteSpace=wrap;html=1;" vertex="1" parent="BHclKkxX6RFogNH9QFCV-3">
          <mxGeometry y="52" width="160" height="26" as="geometry" />
        </mxCell>
        <mxCell id="BHclKkxX6RFogNH9QFCV-5" value="" style="line;strokeWidth=1;fillColor=none;align=left;verticalAlign=middle;spacingTop=-1;spacingLeft=3;spacingRight=3;rotatable=0;labelPosition=right;points=[];portConstraint=eastwest;strokeColor=inherit;" vertex="1" parent="BHclKkxX6RFogNH9QFCV-3">
          <mxGeometry y="78" width="160" height="8" as="geometry" />
        </mxCell>
        <mxCell id="BHclKkxX6RFogNH9QFCV-6" value="+ method(type): type" style="text;strokeColor=none;fillColor=none;align=left;verticalAlign=top;spacingLeft=4;spacingRight=4;overflow=hidden;rotatable=0;points=[[0,0.5],[1,0.5]];portConstraint=eastwest;whiteSpace=wrap;html=1;" vertex="1" parent="BHclKkxX6RFogNH9QFCV-3">
          <mxGeometry y="86" width="160" height="26" as="geometry" />
        </mxCell>
        <mxCell id="BHclKkxX6RFogNH9QFCV-10" value="Hospital" style="swimlane;fontStyle=1;align=center;verticalAlign=top;childLayout=stackLayout;horizontal=1;startSize=26;horizontalStack=0;resizeParent=1;resizeParentMax=0;resizeLast=0;collapsible=1;marginBottom=0;whiteSpace=wrap;html=1;" vertex="1" parent="1">
          <mxGeometry x="600" y="25" width="236" height="86" as="geometry" />
        </mxCell>
        <mxCell id="BHclKkxX6RFogNH9QFCV-31" value="+ appointments: Appointment[]" style="text;strokeColor=none;fillColor=none;align=left;verticalAlign=top;spacingLeft=4;spacingRight=4;overflow=hidden;rotatable=0;points=[[0,0.5],[1,0.5]];portConstraint=eastwest;whiteSpace=wrap;html=1;" vertex="1" parent="BHclKkxX6RFogNH9QFCV-10">
          <mxGeometry y="26" width="236" height="26" as="geometry" />
        </mxCell>
        <mxCell id="BHclKkxX6RFogNH9QFCV-12" value="" style="line;strokeWidth=1;fillColor=none;align=left;verticalAlign=middle;spacingTop=-1;spacingLeft=3;spacingRight=3;rotatable=0;labelPosition=right;points=[];portConstraint=eastwest;strokeColor=inherit;" vertex="1" parent="BHclKkxX6RFogNH9QFCV-10">
          <mxGeometry y="52" width="236" height="8" as="geometry" />
        </mxCell>
        <mxCell id="BHclKkxX6RFogNH9QFCV-13" value="+ method(type): type" style="text;strokeColor=none;fillColor=none;align=left;verticalAlign=top;spacingLeft=4;spacingRight=4;overflow=hidden;rotatable=0;points=[[0,0.5],[1,0.5]];portConstraint=eastwest;whiteSpace=wrap;html=1;" vertex="1" parent="BHclKkxX6RFogNH9QFCV-10">
          <mxGeometry y="60" width="236" height="26" as="geometry" />
        </mxCell>
        <mxCell id="BHclKkxX6RFogNH9QFCV-14" value="Appointment is a Patient - Doctor one to one mapping,&amp;nbsp;&lt;div&gt;Hospital has the access to it&lt;/div&gt;" style="text;html=1;align=center;verticalAlign=middle;resizable=0;points=[];autosize=1;strokeColor=none;fillColor=none;" vertex="1" parent="1">
          <mxGeometry x="990" y="100" width="320" height="40" as="geometry" />
        </mxCell>
        <mxCell id="BHclKkxX6RFogNH9QFCV-15" value="Appointment" style="swimlane;fontStyle=1;align=center;verticalAlign=top;childLayout=stackLayout;horizontal=1;startSize=26;horizontalStack=0;resizeParent=1;resizeParentMax=0;resizeLast=0;collapsible=1;marginBottom=0;whiteSpace=wrap;html=1;" vertex="1" parent="1">
          <mxGeometry x="414" y="220" width="226" height="190" as="geometry" />
        </mxCell>
        <mxCell id="BHclKkxX6RFogNH9QFCV-16" value="+ id: int" style="text;strokeColor=none;fillColor=none;align=left;verticalAlign=top;spacingLeft=4;spacingRight=4;overflow=hidden;rotatable=0;points=[[0,0.5],[1,0.5]];portConstraint=eastwest;whiteSpace=wrap;html=1;" vertex="1" parent="BHclKkxX6RFogNH9QFCV-15">
          <mxGeometry y="26" width="226" height="26" as="geometry" />
        </mxCell>
        <mxCell id="BHclKkxX6RFogNH9QFCV-17" value="+ doctor: Doctor" style="text;strokeColor=none;fillColor=none;align=left;verticalAlign=top;spacingLeft=4;spacingRight=4;overflow=hidden;rotatable=0;points=[[0,0.5],[1,0.5]];portConstraint=eastwest;whiteSpace=wrap;html=1;" vertex="1" parent="BHclKkxX6RFogNH9QFCV-15">
          <mxGeometry y="52" width="226" height="26" as="geometry" />
        </mxCell>
        <mxCell id="BHclKkxX6RFogNH9QFCV-26" value="+ patient: Patient" style="text;strokeColor=none;fillColor=none;align=left;verticalAlign=top;spacingLeft=4;spacingRight=4;overflow=hidden;rotatable=0;points=[[0,0.5],[1,0.5]];portConstraint=eastwest;whiteSpace=wrap;html=1;" vertex="1" parent="BHclKkxX6RFogNH9QFCV-15">
          <mxGeometry y="78" width="226" height="26" as="geometry" />
        </mxCell>
        <mxCell id="BHclKkxX6RFogNH9QFCV-18" value="" style="line;strokeWidth=1;fillColor=none;align=left;verticalAlign=middle;spacingTop=-1;spacingLeft=3;spacingRight=3;rotatable=0;labelPosition=right;points=[];portConstraint=eastwest;strokeColor=inherit;" vertex="1" parent="BHclKkxX6RFogNH9QFCV-15">
          <mxGeometry y="104" width="226" height="8" as="geometry" />
        </mxCell>
        <mxCell id="BHclKkxX6RFogNH9QFCV-19" value="+ CreateAppointment(type): type" style="text;strokeColor=none;fillColor=none;align=left;verticalAlign=top;spacingLeft=4;spacingRight=4;overflow=hidden;rotatable=0;points=[[0,0.5],[1,0.5]];portConstraint=eastwest;whiteSpace=wrap;html=1;" vertex="1" parent="BHclKkxX6RFogNH9QFCV-15">
          <mxGeometry y="112" width="226" height="78" as="geometry" />
        </mxCell>
        <mxCell id="BHclKkxX6RFogNH9QFCV-20" value="Patient" style="swimlane;fontStyle=1;align=center;verticalAlign=top;childLayout=stackLayout;horizontal=1;startSize=26;horizontalStack=0;resizeParent=1;resizeParentMax=0;resizeLast=0;collapsible=1;marginBottom=0;whiteSpace=wrap;html=1;" vertex="1" parent="1">
          <mxGeometry x="770" y="480" width="160" height="112" as="geometry" />
        </mxCell>
        <mxCell id="BHclKkxX6RFogNH9QFCV-21" value="+ id: int" style="text;strokeColor=none;fillColor=none;align=left;verticalAlign=top;spacingLeft=4;spacingRight=4;overflow=hidden;rotatable=0;points=[[0,0.5],[1,0.5]];portConstraint=eastwest;whiteSpace=wrap;html=1;" vertex="1" parent="BHclKkxX6RFogNH9QFCV-20">
          <mxGeometry y="26" width="160" height="26" as="geometry" />
        </mxCell>
        <mxCell id="BHclKkxX6RFogNH9QFCV-22" value="+ Basic Descptions" style="text;strokeColor=none;fillColor=none;align=left;verticalAlign=top;spacingLeft=4;spacingRight=4;overflow=hidden;rotatable=0;points=[[0,0.5],[1,0.5]];portConstraint=eastwest;whiteSpace=wrap;html=1;" vertex="1" parent="BHclKkxX6RFogNH9QFCV-20">
          <mxGeometry y="52" width="160" height="26" as="geometry" />
        </mxCell>
        <mxCell id="BHclKkxX6RFogNH9QFCV-23" value="" style="line;strokeWidth=1;fillColor=none;align=left;verticalAlign=middle;spacingTop=-1;spacingLeft=3;spacingRight=3;rotatable=0;labelPosition=right;points=[];portConstraint=eastwest;strokeColor=inherit;" vertex="1" parent="BHclKkxX6RFogNH9QFCV-20">
          <mxGeometry y="78" width="160" height="8" as="geometry" />
        </mxCell>
        <mxCell id="BHclKkxX6RFogNH9QFCV-24" value="+ method(type): type" style="text;strokeColor=none;fillColor=none;align=left;verticalAlign=top;spacingLeft=4;spacingRight=4;overflow=hidden;rotatable=0;points=[[0,0.5],[1,0.5]];portConstraint=eastwest;whiteSpace=wrap;html=1;" vertex="1" parent="BHclKkxX6RFogNH9QFCV-20">
          <mxGeometry y="86" width="160" height="26" as="geometry" />
        </mxCell>
        <mxCell id="BHclKkxX6RFogNH9QFCV-25" style="edgeStyle=orthogonalEdgeStyle;rounded=0;orthogonalLoop=1;jettySize=auto;html=1;" edge="1" parent="1" source="BHclKkxX6RFogNH9QFCV-17" target="BHclKkxX6RFogNH9QFCV-3">
          <mxGeometry relative="1" as="geometry" />
        </mxCell>
        <mxCell id="BHclKkxX6RFogNH9QFCV-27" style="edgeStyle=orthogonalEdgeStyle;rounded=0;orthogonalLoop=1;jettySize=auto;html=1;" edge="1" parent="1" source="BHclKkxX6RFogNH9QFCV-26" target="BHclKkxX6RFogNH9QFCV-20">
          <mxGeometry relative="1" as="geometry" />
        </mxCell>
        <mxCell id="BHclKkxX6RFogNH9QFCV-33" style="edgeStyle=orthogonalEdgeStyle;rounded=0;orthogonalLoop=1;jettySize=auto;html=1;" edge="1" parent="1" source="BHclKkxX6RFogNH9QFCV-31" target="BHclKkxX6RFogNH9QFCV-15">
          <mxGeometry relative="1" as="geometry" />
        </mxCell>
        <mxCell id="BHclKkxX6RFogNH9QFCV-35" value="Appointment Repo" style="swimlane;fontStyle=1;align=center;verticalAlign=top;childLayout=stackLayout;horizontal=1;startSize=26;horizontalStack=0;resizeParent=1;resizeParentMax=0;resizeLast=0;collapsible=1;marginBottom=0;whiteSpace=wrap;html=1;" vertex="1" parent="1">
          <mxGeometry x="1140" y="220" width="390" height="140" as="geometry" />
        </mxCell>
        <mxCell id="BHclKkxX6RFogNH9QFCV-36" value="+ appointments: Appointment[]" style="text;strokeColor=none;fillColor=none;align=left;verticalAlign=top;spacingLeft=4;spacingRight=4;overflow=hidden;rotatable=0;points=[[0,0.5],[1,0.5]];portConstraint=eastwest;whiteSpace=wrap;html=1;" vertex="1" parent="BHclKkxX6RFogNH9QFCV-35">
          <mxGeometry y="26" width="390" height="26" as="geometry" />
        </mxCell>
        <mxCell id="BHclKkxX6RFogNH9QFCV-37" value="" style="line;strokeWidth=1;fillColor=none;align=left;verticalAlign=middle;spacingTop=-1;spacingLeft=3;spacingRight=3;rotatable=0;labelPosition=right;points=[];portConstraint=eastwest;strokeColor=inherit;" vertex="1" parent="BHclKkxX6RFogNH9QFCV-35">
          <mxGeometry y="52" width="390" height="8" as="geometry" />
        </mxCell>
        <mxCell id="BHclKkxX6RFogNH9QFCV-38" value="+ createAppointment(Doctor d, Patient t, DateTime date): Appointment" style="text;strokeColor=none;fillColor=none;align=left;verticalAlign=top;spacingLeft=4;spacingRight=4;overflow=hidden;rotatable=0;points=[[0,0.5],[1,0.5]];portConstraint=eastwest;whiteSpace=wrap;html=1;" vertex="1" parent="BHclKkxX6RFogNH9QFCV-35">
          <mxGeometry y="60" width="390" height="26" as="geometry" />
        </mxCell>
        <mxCell id="BHclKkxX6RFogNH9QFCV-39" value="+ delete, update, get, getAll..." style="text;strokeColor=none;fillColor=none;align=left;verticalAlign=top;spacingLeft=4;spacingRight=4;overflow=hidden;rotatable=0;points=[[0,0.5],[1,0.5]];portConstraint=eastwest;whiteSpace=wrap;html=1;" vertex="1" parent="BHclKkxX6RFogNH9QFCV-35">
          <mxGeometry y="86" width="390" height="54" as="geometry" />
        </mxCell>
        <mxCell id="BHclKkxX6RFogNH9QFCV-40" value="Doctor Repo" style="swimlane;fontStyle=1;align=center;verticalAlign=top;childLayout=stackLayout;horizontal=1;startSize=26;horizontalStack=0;resizeParent=1;resizeParentMax=0;resizeLast=0;collapsible=1;marginBottom=0;whiteSpace=wrap;html=1;" vertex="1" parent="1">
          <mxGeometry x="1140" y="380" width="360" height="112" as="geometry" />
        </mxCell>
        <mxCell id="BHclKkxX6RFogNH9QFCV-41" value="+ doctors: Doctors[]" style="text;strokeColor=none;fillColor=none;align=left;verticalAlign=top;spacingLeft=4;spacingRight=4;overflow=hidden;rotatable=0;points=[[0,0.5],[1,0.5]];portConstraint=eastwest;whiteSpace=wrap;html=1;" vertex="1" parent="BHclKkxX6RFogNH9QFCV-40">
          <mxGeometry y="26" width="360" height="26" as="geometry" />
        </mxCell>
        <mxCell id="BHclKkxX6RFogNH9QFCV-42" value="" style="line;strokeWidth=1;fillColor=none;align=left;verticalAlign=middle;spacingTop=-1;spacingLeft=3;spacingRight=3;rotatable=0;labelPosition=right;points=[];portConstraint=eastwest;strokeColor=inherit;" vertex="1" parent="BHclKkxX6RFogNH9QFCV-40">
          <mxGeometry y="52" width="360" height="8" as="geometry" />
        </mxCell>
        <mxCell id="BHclKkxX6RFogNH9QFCV-43" value="+ createDoctor(Doctor d):&amp;nbsp;" style="text;strokeColor=none;fillColor=none;align=left;verticalAlign=top;spacingLeft=4;spacingRight=4;overflow=hidden;rotatable=0;points=[[0,0.5],[1,0.5]];portConstraint=eastwest;whiteSpace=wrap;html=1;" vertex="1" parent="BHclKkxX6RFogNH9QFCV-40">
          <mxGeometry y="60" width="360" height="26" as="geometry" />
        </mxCell>
        <mxCell id="BHclKkxX6RFogNH9QFCV-44" value="+ delete, update, get, getAll..." style="text;strokeColor=none;fillColor=none;align=left;verticalAlign=top;spacingLeft=4;spacingRight=4;overflow=hidden;rotatable=0;points=[[0,0.5],[1,0.5]];portConstraint=eastwest;whiteSpace=wrap;html=1;" vertex="1" parent="BHclKkxX6RFogNH9QFCV-40">
          <mxGeometry y="86" width="360" height="26" as="geometry" />
        </mxCell>
        <mxCell id="BHclKkxX6RFogNH9QFCV-45" value="Patient Repo" style="swimlane;fontStyle=1;align=center;verticalAlign=top;childLayout=stackLayout;horizontal=1;startSize=26;horizontalStack=0;resizeParent=1;resizeParentMax=0;resizeLast=0;collapsible=1;marginBottom=0;whiteSpace=wrap;html=1;" vertex="1" parent="1">
          <mxGeometry x="1140" y="529" width="360" height="112" as="geometry" />
        </mxCell>
        <mxCell id="BHclKkxX6RFogNH9QFCV-46" value="+ patient: Doctors[]" style="text;strokeColor=none;fillColor=none;align=left;verticalAlign=top;spacingLeft=4;spacingRight=4;overflow=hidden;rotatable=0;points=[[0,0.5],[1,0.5]];portConstraint=eastwest;whiteSpace=wrap;html=1;" vertex="1" parent="BHclKkxX6RFogNH9QFCV-45">
          <mxGeometry y="26" width="360" height="26" as="geometry" />
        </mxCell>
        <mxCell id="BHclKkxX6RFogNH9QFCV-47" value="" style="line;strokeWidth=1;fillColor=none;align=left;verticalAlign=middle;spacingTop=-1;spacingLeft=3;spacingRight=3;rotatable=0;labelPosition=right;points=[];portConstraint=eastwest;strokeColor=inherit;" vertex="1" parent="BHclKkxX6RFogNH9QFCV-45">
          <mxGeometry y="52" width="360" height="8" as="geometry" />
        </mxCell>
        <mxCell id="BHclKkxX6RFogNH9QFCV-48" value="+ CreatePatient(Patient p): Patient" style="text;strokeColor=none;fillColor=none;align=left;verticalAlign=top;spacingLeft=4;spacingRight=4;overflow=hidden;rotatable=0;points=[[0,0.5],[1,0.5]];portConstraint=eastwest;whiteSpace=wrap;html=1;" vertex="1" parent="BHclKkxX6RFogNH9QFCV-45">
          <mxGeometry y="60" width="360" height="26" as="geometry" />
        </mxCell>
        <mxCell id="BHclKkxX6RFogNH9QFCV-49" value="+ delete, update, get, getAll..." style="text;strokeColor=none;fillColor=none;align=left;verticalAlign=top;spacingLeft=4;spacingRight=4;overflow=hidden;rotatable=0;points=[[0,0.5],[1,0.5]];portConstraint=eastwest;whiteSpace=wrap;html=1;" vertex="1" parent="BHclKkxX6RFogNH9QFCV-45">
          <mxGeometry y="86" width="360" height="26" as="geometry" />
        </mxCell>
      </root>
    </mxGraphModel>
  </diagram>
</mxfile>
